<svg version="1.0"
    xmlns="http://www.w3.org/2000/svg" width="64.000000pt" height="64.000000pt" viewBox="0 0 64.000000 64.000000" preserveAspectRatio="xMidYMid meet">

    <g transform="translate(0.000000,64.000000) scale(0.100000,-0.100000)" fill="#000000" stroke="none">
        <path d="M212 548 c-7 -7 -12 -36 -12 -65 0 -42 -4 -55 -17 -60 -26 -9 -63
-44 -63 -59 0 -7 -11 -25 -25 -40 -14 -15 -25 -30 -25 -35 0 -11 29 -39 41
-39 16 0 10 -26 -11 -45 -11 -10 -25 -35 -32 -56 -20 -69 -18 -69 251 -69 171
0 240 3 249 12 8 8 12 64 12 187 l0 175 -55 53 -55 53 -123 0 c-82 0 -127 -4
-135 -12z m248 -46 c0 -48 14 -62 62 -62 l38 0 0 -170 0 -170 -99 0 -99 0 -10
43 c-6 24 -21 52 -32 62 -21 19 -27 45 -11 45 12 0 41 28 41 39 0 5 -11 20
-25 35 -14 15 -25 33 -25 40 0 15 -37 50 -62 59 -14 5 -18 18 -18 62 l0 55
120 0 120 0 0 -38z m55 -12 l29 -30 -32 0 c-29 0 -32 3 -32 30 0 17 1 30 3 30
2 0 16 -13 32 -30z m-250 -105 c36 -35 36 -125 0 -160 -32 -33 -78 -33 -110 0
-21 20 -25 34 -25 80 0 46 4 60 25 80 15 16 36 25 55 25 19 0 40 -9 55 -25z
m-155 -95 c0 -11 -4 -20 -10 -20 -5 0 -10 9 -10 20 0 11 5 20 10 20 6 0 10 -9
10 -20z m220 0 c0 -11 -4 -20 -10 -20 -5 0 -10 9 -10 20 0 11 5 20 10 20 6 0
10 -9 10 -20z m-120 -105 c22 0 46 8 58 18 17 16 32 14 32 -4 0 -14 -58 -39
-90 -39 -32 0 -90 25 -90 39 0 18 15 20 32 4 12 -10 36 -18 58 -18z m0 -39
c35 0 58 6 79 21 l28 22 12 -25 c17 -38 14 -64 -8 -64 -11 0 -22 6 -25 13 -5
10 -7 10 -12 0 -4 -9 -29 -13 -74 -13 -45 0 -70 4 -74 13 -5 10 -7 10 -12 0
-3 -7 -14 -13 -25 -13 -22 0 -25 26 -8 64 l12 25 28 -22 c21 -15 44 -21 79
-21z"/>
        <path d="M320 390 c0 -6 37 -10 90 -10 53 0 90 4 90 10 0 6 -37 10 -90 10 -53
0 -90 -4 -90 -10z"/>
        <path d="M360 350 c0 -6 30 -10 70 -10 40 0 70 4 70 10 0 6 -30 10 -70 10 -40
0 -70 -4 -70 -10z"/>
        <path d="M380 310 c0 -6 27 -10 60 -10 33 0 60 4 60 10 0 6 -27 10 -60 10 -33
0 -60 -4 -60 -10z"/>
        <path d="M380 270 c0 -5 22 -10 50 -10 49 0 50 -1 50 -30 0 -29 -1 -30 -50
-30 -28 0 -50 -5 -50 -10 0 -7 22 -10 58 -8 l57 3 0 45 0 45 -57 3 c-36 2 -58
-1 -58 -8z"/>
    </g>
</svg>
